<?xml version="1.0" encoding="utf-8"?>
<!-- Generator: Adobe Illustrator 27.5.0, SVG Export Plug-In . SVG Version: 6.00 Build 0)  -->
<svg version="1.1" id="圖層_1" xmlns="http://www.w3.org/2000/svg" xmlns:xlink="http://www.w3.org/1999/xlink" x="0px" y="0px"
	 viewBox="0 0 877.178 648.861" style="enable-background:new 0 0 877.178 648.861;" xml:space="preserve">
<style type="text/css">
	.st0{fill:#F8FAFC;}
	.st1{fill:#FFFFFF;stroke:#6A798F;stroke-miterlimit:10;}
	.st2{fill:#F1F5F9;}
	.st3{fill:#FFFFFF;}
	.st4{fill:#D5D9DF;}
	.st5{fill:#6A798F;}
	.st6{fill:#0085FF;}
	.st7{fill:#00C800;}
	.st8{fill:none;stroke:#D5D9DF;stroke-width:2;stroke-linecap:round;stroke-linejoin:round;stroke-miterlimit:10;}
	.st9{fill:#D4D7DC;}
	.st10{fill:none;}
	.st11{font-family:'PingFangTC-Semibold-B5pc-H';}
	.st12{font-size:14px;}
	.st13{font-size:12px;}
	.st14{fill:none;stroke:#6A798F;stroke-width:2;stroke-linecap:round;stroke-linejoin:round;stroke-miterlimit:10;}
	.st15{fill:none;stroke:#6A798F;stroke-width:2.3006;stroke-linecap:round;stroke-linejoin:round;stroke-miterlimit:10;}
	.st16{fill:none;stroke:#F1F5F9;stroke-width:3;stroke-linecap:round;stroke-linejoin:round;stroke-miterlimit:10;}
	.st17{opacity:0.3;fill:none;stroke:#00C800;stroke-width:3;stroke-linecap:round;stroke-linejoin:round;stroke-miterlimit:10;}
	.st18{fill:none;stroke:#6A798D;stroke-width:2;stroke-linecap:round;stroke-linejoin:round;stroke-miterlimit:10;}
</style>
<rect class="st0" width="877.178" height="648.861"/>
<path class="st1" d="M765.576,570.569H111.601c-12.15,0-22-9.85-22-22V188.711c0-12.15,9.85-22,22-22h653.975c12.15,0,22,9.85,22,22
	v359.858C787.576,560.72,777.727,570.569,765.576,570.569z"/>
<path class="st2" d="M540.231,240.728H386.975c-5.523,0-10-4.477-10-10v-11.635c0-5.523,4.477-10,10-10h153.255
	c5.523,0,10,4.477,10,10v11.635C550.231,236.251,545.753,240.728,540.231,240.728z"/>
<path class="st2" d="M674.23,240.728h-12.764c-6.652,0-12.044-5.393-12.044-12.044v-7.546c0-6.652,5.393-12.044,12.044-12.044
	h12.764c6.652,0,12.044,5.393,12.044,12.044v7.546C686.274,235.336,680.882,240.728,674.23,240.728z"/>
<path class="st3" d="M326.518,140.9H131.661c-12.15,0-22-9.85-22-22v-1.007c0-12.15,9.85-22,22-22h194.858c12.15,0,22,9.85,22,22
	v1.007C348.518,131.05,338.669,140.9,326.518,140.9z"/>
<path class="st3" d="M558.615,140.9h-78.524c-12.15,0-22-9.85-22-22v-1.007c0-12.15,9.85-22,22-22h78.524c12.15,0,22,9.85,22,22
	v1.007C580.615,131.05,570.765,140.9,558.615,140.9z"/>
<path class="st3" d="M728.92,140.9H622.881c-12.428,0-22.503-10.075-22.503-22.503v0c0-12.428,10.075-22.503,22.503-22.503H728.92
	c12.428,0,22.503,10.075,22.503,22.503v0C751.423,130.825,741.348,140.9,728.92,140.9z"/>
<path class="st3" d="M757.237,77.077h-79.673c-12.428,0-22.503-10.075-22.503-22.503v0c0-12.428,10.075-22.503,22.503-22.503h79.673
	c12.428,0,22.503,10.075,22.503,22.503v0C779.741,67.002,769.666,77.077,757.237,77.077z"/>
<path class="st2" d="M325.233,136.543h-26.982c-10.022,0-18.147-8.125-18.147-18.147v0c0-10.022,8.125-18.147,18.147-18.147h26.982
	c10.022,0,18.147,8.125,18.147,18.147v0C343.38,128.419,335.255,136.543,325.233,136.543z"/>
<g>
	<rect x="-126.328" y="5.599" class="st3" width="69.176" height="27.765"/>
	<g>
		<rect x="-118.436" y="10.835" class="st10" width="52.867" height="15.541"/>
		<text transform="matrix(1 0 0 1 -114.4761 23.3342)" style="font-family:'PingFangTC-Medium-B5pc-H'; font-size:11px;">#FFFFFF</text>
	</g>
</g>
<g>
	<rect x="-126.328" y="33.363" class="st2" width="69.176" height="27.765"/>
	<rect x="-118.437" y="38.6" class="st10" width="52.867" height="15.541"/>
	<text transform="matrix(1 0 0 1 -92.003 51.0998)" style="font-family:'PingFangTC-Medium-B5pc-H'; font-size:11px;"> </text>
</g>
<g>
	<rect x="-126.328" y="61.128" class="st4" width="69.176" height="27.765"/>
	<rect x="-118.34" y="66.365" class="st10" width="52.867" height="15.541"/>
	<text transform="matrix(1 0 0 1 -97.4063 78.8649)" style="font-family:'PingFangTC-Medium-B5pc-H'; font-size:11px;">vv </text>
</g>
<g>
	<rect x="-126.328" y="88.892" class="st5" width="69.176" height="27.765"/>
	<rect x="-118.257" y="94.129" class="st10" width="52.867" height="15.541"/>
	<text transform="matrix(1 0 0 1 -114.9561 106.6291)" style="font-family:'PingFangTC-Medium-B5pc-H'; font-size:11px;">#6A798F</text>
</g>
<g>
	<rect x="-126.328" y="144.422" class="st6" width="69.176" height="27.765"/>
	<rect x="-118.257" y="149.658" class="st10" width="52.867" height="15.541"/>
	<text transform="matrix(1 0 0 1 -114.7139 162.1584)" style="font-family:'PingFangTC-Medium-B5pc-H'; font-size:11px;">#0085FF</text>
</g>
<g>
	<rect x="-126.328" y="116.657" class="st7" width="69.176" height="27.765"/>
	<rect x="-118.257" y="121.894" class="st10" width="52.867" height="15.541"/>
	<text transform="matrix(1 0 0 1 -115.6436 134.3937)" style="font-family:'PingFangTC-Medium-B5pc-H'; font-size:11px;">#00C800</text>
</g>
<g>
	<path class="st8" d="M588.273,231.628h-8.261c-1.452,0-2.542-1.18-2.542-2.542v-8.352c0-1.452,1.18-2.542,2.542-2.542h8.261
		c1.452,0,2.542,1.18,2.542,2.542v8.261C590.815,230.448,589.725,231.628,588.273,231.628z"/>
	<polyline class="st8" points="580.647,225.637 583.643,228.088 587.819,222.278 	"/>
</g>
<g>
	<circle class="st9" cx="154.03" cy="216.261" r="1.84"/>
	<circle class="st9" cx="146.668" cy="216.261" r="1.84"/>
	<circle class="st9" cx="154.03" cy="224.911" r="1.84"/>
	<circle class="st9" cx="146.668" cy="224.911" r="1.84"/>
	<circle class="st9" cx="154.03" cy="233.561" r="1.84"/>
	<circle class="st9" cx="146.668" cy="233.561" r="1.84"/>
</g>
<rect x="133.531" y="111.41" class="st10" width="34.482" height="28.605"/>
<text transform="matrix(1 0 0 1 133.5327 123.45)" class="st5 st11 st12">客戶</text>
<rect x="215.192" y="111.41" class="st10" width="29.998" height="28.605"/>
<text transform="matrix(1 0 0 1 215.1928 123.4505)" class="st5 st11 st12">專案</text>
<g>
	<rect x="297.863" y="111.371" class="st10" width="30.903" height="28.605"/>
	<text transform="matrix(1 0 0 1 297.8647 123.4114)" class="st5 st11 st12">任務</text>
</g>
<g>
	<rect x="632.15" y="111.413" class="st10" width="93.156" height="28.605"/>
	<text transform="matrix(1 0 0 1 632.1518 123.4534)" class="st5 st11 st12">選擇專案</text>
</g>
<path class="st2" d="M267.784,240.728H185.13c-5.523,0-10-4.477-10-10v-11.635c0-5.523,4.477-10,10-10h82.655
	c5.523,0,10,4.477,10,10v11.635C277.784,236.251,273.307,240.728,267.784,240.728z"/>
<path class="st2" d="M353.806,240.728h-56.842c-5.523,0-10-4.477-10-10v-11.635c0-5.523,4.477-10,10-10h56.842
	c5.523,0,10,4.477,10,10v11.635C363.806,236.251,359.329,240.728,353.806,240.728z"/>
<g>
	<rect x="195.132" y="210.09" class="st10" width="71.772" height="27.98"/>
	<text transform="matrix(1 0 0 1 195.1312 229.2405)" class="st5 st11 st13">客戶簡稱...</text>
</g>
<g>
	<rect x="298.21" y="210.079" class="st10" width="63.233" height="27.98"/>
	<text transform="matrix(1 0 0 1 298.2108 229.2283)" class="st5 st11 st13">2024/4/19</text>
</g>
<g>
	<rect x="409.68" y="210.084" class="st10" width="69.003" height="27.98"/>
	<text transform="matrix(1 0 0 1 409.6793 229.2344)" class="st5 st11 st13"> 任務1內容...</text>
</g>
<g>
	<line class="st14" x1="661.248" y1="220.511" x2="674.448" y2="220.511"/>
	<path class="st14" d="M673.048,220.611v10.8c0,0.7-0.6,1.3-1.4,1.3h-7.6c-0.8,0-1.4-0.6-1.4-1.3v-10.8"/>
	<path class="st14" d="M671.448,220.511v-2c0-0.8-0.6-1.4-1.4-1.4h-4.4c-0.8,0-1.4,0.6-1.4,1.4v1.9"/>
	<line class="st14" x1="666.248" y1="224.411" x2="666.248" y2="228.811"/>
	<line class="st14" x1="669.448" y1="224.411" x2="669.448" y2="228.811"/>
</g>
<g>
	<rect x="619.495" y="222.211" class="st8" width="9.2" height="9.2"/>
	<polyline class="st8" points="629.295,227.611 632.495,227.611 632.495,218.411 623.295,218.411 623.295,221.611 	"/>
</g>
<g>
	<g>
		<path class="st8" d="M588.273,294.419h-8.261c-1.452,0-2.542-1.18-2.542-2.542v-8.352c0-1.452,1.18-2.542,2.542-2.542h8.261
			c1.452,0,2.542,1.18,2.542,2.542v8.261C590.815,293.239,589.725,294.419,588.273,294.419z"/>
		<polyline class="st8" points="580.647,288.428 583.643,290.879 587.819,285.069 		"/>
	</g>
	<g>
		<circle class="st9" cx="154.03" cy="279.052" r="1.84"/>
		<circle class="st9" cx="146.668" cy="279.052" r="1.84"/>
		<circle class="st9" cx="154.03" cy="287.702" r="1.84"/>
		<circle class="st9" cx="146.668" cy="287.702" r="1.84"/>
		<circle class="st9" cx="154.03" cy="296.352" r="1.84"/>
		<circle class="st9" cx="146.668" cy="296.352" r="1.84"/>
	</g>
	<path class="st2" d="M267.784,303.519H185.13c-5.523,0-10-4.477-10-10v-11.635c0-5.523,4.477-10,10-10h82.655
		c5.523,0,10,4.477,10,10v11.635C277.784,299.042,273.307,303.519,267.784,303.519z"/>
	<path class="st2" d="M353.806,303.519h-56.842c-5.523,0-10-4.477-10-10v-11.635c0-5.523,4.477-10,10-10h56.842
		c5.523,0,10,4.477,10,10v11.635C363.806,299.042,359.329,303.519,353.806,303.519z"/>
	<g>
		<rect x="195.132" y="272.881" class="st10" width="71.772" height="27.98"/>
		<text transform="matrix(1 0 0 1 195.1312 292.0314)" class="st5 st11 st13">客戶簡稱...</text>
	</g>
	<g>
		<rect x="298.21" y="272.87" class="st10" width="63.233" height="27.98"/>
		<text transform="matrix(1 0 0 1 298.2108 292.0192)" class="st5 st11 st13">2024/4/19</text>
	</g>
	<path class="st2" d="M540.231,303.519H386.975c-5.523,0-10-4.477-10-10v-11.635c0-5.523,4.477-10,10-10h153.255
		c5.523,0,10,4.477,10,10v11.635C550.231,299.042,545.753,303.519,540.231,303.519z"/>
	<g>
		<rect x="409.68" y="272.875" class="st10" width="69.003" height="27.98"/>
		<text transform="matrix(1 0 0 1 409.6793 292.0253)" class="st5 st11 st13">任務2內容...</text>
	</g>
	<g>
		<line class="st8" x1="661.248" y1="283.302" x2="674.448" y2="283.302"/>
		<path class="st8" d="M673.048,283.402v10.8c0,0.7-0.6,1.3-1.4,1.3h-7.6c-0.8,0-1.4-0.6-1.4-1.3v-10.8"/>
		<path class="st8" d="M671.448,283.302v-2c0-0.8-0.6-1.4-1.4-1.4h-4.4c-0.8,0-1.4,0.6-1.4,1.4v1.9"/>
		<line class="st8" x1="666.248" y1="287.202" x2="666.248" y2="291.602"/>
		<line class="st8" x1="669.448" y1="287.202" x2="669.448" y2="291.602"/>
	</g>
	<g>
		<rect x="619.495" y="285.002" class="st8" width="9.2" height="9.2"/>
		<polyline class="st8" points="629.295,290.402 632.495,290.402 632.495,281.202 623.295,281.202 623.295,284.402 		"/>
	</g>
</g>
<g>
	<g>
		<path class="st8" d="M588.273,357.21h-8.261c-1.452,0-2.542-1.18-2.542-2.542v-8.352c0-1.452,1.18-2.542,2.542-2.542h8.261
			c1.452,0,2.542,1.18,2.542,2.542v8.261C590.815,356.03,589.725,357.21,588.273,357.21z"/>
		<polyline class="st8" points="580.647,351.219 583.643,353.67 587.819,347.86 		"/>
	</g>
	<g>
		<circle class="st9" cx="154.03" cy="341.843" r="1.84"/>
		<circle class="st9" cx="146.668" cy="341.843" r="1.84"/>
		<circle class="st9" cx="154.03" cy="350.493" r="1.84"/>
		<circle class="st9" cx="146.668" cy="350.493" r="1.84"/>
		<circle class="st9" cx="154.03" cy="359.143" r="1.84"/>
		<circle class="st9" cx="146.668" cy="359.143" r="1.84"/>
	</g>
	<path class="st2" d="M267.784,366.31H185.13c-5.523,0-10-4.477-10-10v-11.635c0-5.523,4.477-10,10-10h82.655
		c5.523,0,10,4.477,10,10v11.635C277.784,361.833,273.307,366.31,267.784,366.31z"/>
	<path class="st2" d="M353.806,366.31h-56.842c-5.523,0-10-4.477-10-10v-11.635c0-5.523,4.477-10,10-10h56.842
		c5.523,0,10,4.477,10,10v11.635C363.806,361.833,359.329,366.31,353.806,366.31z"/>
	<g>
		<rect x="195.132" y="335.672" class="st10" width="71.772" height="27.98"/>
		<text transform="matrix(1 0 0 1 195.1312 354.8224)" class="st5 st11 st13">客戶簡稱...</text>
	</g>
	<g>
		<rect x="298.21" y="335.661" class="st10" width="63.233" height="27.98"/>
		<text transform="matrix(1 0 0 1 298.2108 354.8102)" class="st5 st11 st13">2024/4/19</text>
	</g>
	<path class="st2" d="M540.231,366.31H386.975c-5.523,0-10-4.477-10-10v-11.635c0-5.523,4.477-10,10-10h153.255
		c5.523,0,10,4.477,10,10v11.635C550.231,361.833,545.753,366.31,540.231,366.31z"/>
	<g>
		<rect x="409.68" y="335.666" class="st10" width="69.003" height="27.98"/>
		<text transform="matrix(1 0 0 1 409.6793 354.8163)" class="st5 st11 st13">任務2內容...</text>
	</g>
	<g>
		<line class="st8" x1="661.248" y1="346.093" x2="674.448" y2="346.093"/>
		<path class="st8" d="M673.048,346.193v10.8c0,0.7-0.6,1.3-1.4,1.3h-7.6c-0.8,0-1.4-0.6-1.4-1.3v-10.8"/>
		<path class="st8" d="M671.448,346.093v-2c0-0.8-0.6-1.4-1.4-1.4h-4.4c-0.8,0-1.4,0.6-1.4,1.4v1.9"/>
		<line class="st8" x1="666.248" y1="349.993" x2="666.248" y2="354.393"/>
		<line class="st8" x1="669.448" y1="349.993" x2="669.448" y2="354.393"/>
	</g>
	<g>
		<rect x="619.495" y="347.793" class="st8" width="9.2" height="9.2"/>
		<polyline class="st8" points="629.295,353.193 632.495,353.193 632.495,343.993 623.295,343.993 623.295,347.193 		"/>
	</g>
</g>
<path class="st0" d="M552.13,136.656h-14.643c-7.632,0-13.818-6.187-13.818-13.818v-8.658c0-7.632,6.187-13.818,13.818-13.818
	h14.643c7.632,0,13.818,6.187,13.818,13.818v8.658C565.949,130.47,559.762,136.656,552.13,136.656z"/>
<path class="st0" d="M703.47,72.721h-14.643c-7.632,0-13.818-6.187-13.818-13.818v-8.658c0-7.632,6.187-13.818,13.818-13.818h14.643
	c7.632,0,13.818,6.187,13.818,13.818v8.658C717.288,66.534,711.101,72.721,703.47,72.721z"/>
<g>
	<g>
		<path class="st15" d="M550.043,127.022h-10.468c-1.84,0-3.221-1.495-3.221-3.221v-10.583c0-1.84,1.495-3.221,3.221-3.221h10.468
			c1.84,0,3.221,1.495,3.221,3.221v10.468C553.263,125.526,551.883,127.022,550.043,127.022z"/>
		<polyline class="st15" points="540.38,119.43 544.176,122.536 549.467,115.174 		"/>
	</g>
</g>
<path class="st0" d="M501.22,136.656h-14.643c-7.632,0-13.818-6.187-13.818-13.818v-8.658c0-7.632,6.187-13.818,13.818-13.818
	h14.643c7.632,0,13.818,6.187,13.818,13.818v8.658C515.038,130.47,508.851,136.656,501.22,136.656z"/>
<g>
	<g>
		<path class="st15" d="M499.132,127.022h-10.468c-1.84,0-3.221-1.495-3.221-3.221v-10.583c0-1.84,1.495-3.221,3.221-3.221h10.468
			c1.84,0,3.221,1.495,3.221,3.221v10.468C502.353,125.526,500.972,127.022,499.132,127.022z"/>
	</g>
</g>
<line class="st16" x1="110.941" y1="256.306" x2="738.44" y2="256.306"/>
<line class="st17" x1="110.941" y1="319.097" x2="738.44" y2="319.097"/>
<g>
	<circle class="st18" cx="696.148" cy="52.774" r="2.9"/>
	<path class="st18" d="M691.248,61.974v-1.6c0-2.7,2.1-4.8,4.8-4.8h0.1h0.2c2.7,0,4.8,2.2,4.8,4.8v1.6"/>
	<circle class="st18" cx="696.148" cy="54.574" r="8.9"/>
</g>
<g>
	<polyline class="st18" points="749.155,48.274 742.755,48.274 742.755,60.874 749.155,60.874 	"/>
	<line class="st18" x1="755.555" y1="54.574" x2="747.455" y2="54.574"/>
	<line class="st18" x1="755.555" y1="54.574" x2="752.955" y2="51.374"/>
	<line class="st18" x1="755.555" y1="54.574" x2="752.955" y2="57.774"/>
</g>
<polyline class="st15" points="731.55,115.688 725.424,122.246 719.298,115.688 "/>
</svg>
