<?xml version="1.0" encoding="utf-8"?>
<!-- Generator: Adobe Illustrator 27.5.0, SVG Export Plug-In . SVG Version: 6.00 Build 0)  -->
<svg version="1.1" id="圖層_1" xmlns="http://www.w3.org/2000/svg" xmlns:xlink="http://www.w3.org/1999/xlink" x="0px" y="0px"
	 viewBox="0 0 320 320" style="enable-background:new 0 0 320 320;" xml:space="preserve">
<style type="text/css">
	.st0{fill:#06C755;}
	.st1{fill:#FFFFFF;}
</style>
<g id="Layer_2">
	<g id="LINE_LOGO">
		<path class="st0" d="M72.14,0h175.72C287.702,0,320,32.298,320,72.14v175.72c0,39.842-32.298,72.14-72.14,72.14H72.14
			C32.298,320,0,287.702,0,247.86V72.14C0,32.298,32.298,0,72.14,0z"/>
		<path class="st1" d="M266.66,144.92c0-47.74-47.86-86.58-106.69-86.58S53.28,97.18,53.28,144.92c0,42.8,38,78.65,89.22,85.42
			c3.48,0.75,8.21,2.29,9.4,5.26c1.08,2.7,0.71,6.93,0.35,9.65c0,0-1.25,7.53-1.52,9.13c-0.47,2.7-2.15,10.55,9.24,5.76
			c11.39-4.79,61.44-36.18,83.82-61.95l0,0C259.25,181.24,266.66,164,266.66,144.92z"/>
		<path class="st0" d="M231.16,172.49h-30c-1.105,0-2-0.895-2-2l0,0l0,0v-46.55l0,0l0,0c0-1.105,0.895-2,2-2h30c1.105,0,2,0.895,2,2
			v7.57c0,1.105-0.895,2-2,2h-20.37v7.85h20.37c1.105,0,2,0.895,2,2V151c0,1.105-0.895,2-2,2h-20.37v7.86h20.37c1.105,0,2,0.895,2,2
			v7.56c0.039,1.104-0.825,2.03-1.929,2.069C231.207,172.49,231.184,172.49,231.16,172.49z"/>
		<path class="st0" d="M120.29,172.49c1.105,0,2-0.895,2-2v-7.56c0-1.105-0.895-2-2-2H99.92v-37c0-1.105-0.895-2-2-2h-7.6
			c-1.105,0-2,0.895-2,2v46.53l0,0l0,0c0,1.105,0.895,2,2,2h30L120.29,172.49z"/>
		<path class="st0" d="M130.77,121.85h7.56c1.127,0,2.04,0.913,2.04,2.04v46.56c0,1.127-0.913,2.04-2.04,2.04h-7.56
			c-1.127,0-2.04-0.913-2.04-2.04v-46.56C128.73,122.763,129.643,121.85,130.77,121.85z"/>
		<path class="st0" d="M189.84,121.85h-7.56c-1.105,0-2,0.895-2,2v27.66l-21.3-28.77c-0.049-0.076-0.106-0.147-0.17-0.21l0,0
			l-0.12-0.12l0,0l-0.11-0.09h-0.06l-0.11-0.08h-0.06l-0.11-0.06h-0.07h-0.11h-0.07h-0.12h-0.08h-0.12h-0.08h-0.11h-7.71
			c-1.105,0-2,0.895-2,2v46.56c0,1.105,0.895,2,2,2h7.57c1.105,0,2-0.895,2-2v-27.93l21.33,28.8c0.14,0.204,0.316,0.38,0.52,0.52
			l0,0l0.12,0.08h0.06l0.1,0.05h0.1h0.07h0.14l0,0c0.177,0.044,0.358,0.067,0.54,0.07h7.52c1.105,0,2-0.895,2-2v-46.44
			c0.022-1.104-0.855-2.018-1.96-2.04C189.867,121.85,189.853,121.85,189.84,121.85z"/>
	</g>
</g>
</svg>
