<?xml version="1.0" encoding="utf-8"?>
<!-- Generator: Adobe Illustrator 27.5.0, SVG Export Plug-In . SVG Version: 6.00 Build 0)  -->
<svg version="1.1" id="Слой_1" xmlns="http://www.w3.org/2000/svg" xmlns:xlink="http://www.w3.org/1999/xlink" x="0px" y="0px"
	 viewBox="0 0 65.7 65.8" style="enable-background:new 0 0 65.7 65.8;" xml:space="preserve">
<style type="text/css">
	.st0{fill:#FFFFFF;}
	.st1{fill:#4285F4;}
	.st2{fill:#EA4335;}
	.st3{fill:#FBBC05;}
	.st4{fill:#34A853;}
</style>
<circle class="st0" cx="32.8" cy="32.8" r="32.8"/>
<path class="st1" d="M55.3,32.8c0,6.5-2.9,12.8-7.7,17l-6.3-7.3c1.7-1.5,3-3.4,3.7-5.6H33.3v-8.1h21.6
	C55.2,30.1,55.3,31.4,55.3,32.8z"/>
<path class="st2" d="M47.8,16l-6.4,7.2c-6.2-5.7-16.8-3.6-20.2,4L12.5,23C18.6,9.7,36.9,6,47.8,16z"/>
<path class="st3" d="M19.9,32.8c0,2,0.5,3.9,1.3,5.6l-8.7,4.2c-2.9-5.8-2.9-13.7,0-19.6l8.7,4.2C20.4,28.9,19.9,30.8,19.9,32.8z"/>
<path class="st4" d="M47.6,49.8c-10.9,9.8-29,6-35.1-7.2l8.7-4.2c3.4,7.5,13.9,9.7,20.1,4.1L47.6,49.8z"/>
</svg>
