<?xml version="1.0" encoding="utf-8"?>
<!-- Generator: Adobe Illustrator 27.5.0, SVG Export Plug-In . SVG Version: 6.00 Build 0)  -->
<svg version="1.1" id="圖層_1" xmlns="http://www.w3.org/2000/svg" xmlns:xlink="http://www.w3.org/1999/xlink" x="0px" y="0px"
	 viewBox="0 0 24 24" style="enable-background:new 0 0 24 24;" xml:space="preserve">
<style type="text/css">
	.st0{fill:none;stroke:#D4D8DE;stroke-width:2;stroke-linecap:round;stroke-linejoin:round;stroke-miterlimit:10;}
	.st1{fill:#D4D8DE;}
	.st2{fill:none;}
	.st3{fill:none;stroke:#FFFFFF;stroke-width:3;stroke-linecap:round;stroke-linejoin:round;stroke-miterlimit:10;}
</style>
<path class="st0" d="M16.818,18.61H7.182c-0.783,0-1.417-0.635-1.417-1.417V8.785c0-0.783,0.635-1.417,1.417-1.417h9.636
	c0.783,0,1.417,0.635,1.417,1.417v8.407C18.235,17.975,17.601,18.61,16.818,18.61z"/>
<path class="st1" d="M18.235,9.859H5.765V8.785c0-0.783,0.635-1.417,1.417-1.417h9.636c0.783,0,1.417,0.635,1.417,1.417V9.859z"/>
<rect y="0" class="st2" width="24" height="24"/>
<rect x="8.23" y="11.485" class="st1" width="1.4" height="1.4"/>
<rect x="11.3" y="11.485" class="st1" width="1.4" height="1.4"/>
<rect x="14.37" y="11.485" class="st1" width="1.4" height="1.4"/>
<rect x="8.23" y="14.511" class="st1" width="1.4" height="1.4"/>
<rect x="11.3" y="14.511" class="st1" width="1.4" height="1.4"/>
<rect x="14.37" y="14.511" class="st1" width="1.4" height="1.4"/>
<g>
	<line class="st3" x1="7.93" y1="5.829" x2="7.93" y2="6.781"/>
	<line class="st0" x1="7.93" y1="5.829" x2="7.93" y2="6.781"/>
</g>
<g>
	<line class="st3" x1="16.07" y1="5.829" x2="16.07" y2="6.781"/>
	<line class="st0" x1="16.07" y1="5.829" x2="16.07" y2="6.781"/>
</g>
</svg>
