<?xml version="1.0" encoding="utf-8"?>
<!-- Generator: Adobe Illustrator 27.5.0, SVG Export Plug-In . SVG Version: 6.00 Build 0)  -->
<svg version="1.1" id="圖層_1" xmlns="http://www.w3.org/2000/svg" xmlns:xlink="http://www.w3.org/1999/xlink" x="0px" y="0px"
	 viewBox="0 0 24 24" style="enable-background:new 0 0 24 24;" xml:space="preserve">
<style type="text/css">
	.st0{fill:none;stroke:#D4D8DE;stroke-width:2;stroke-linecap:round;stroke-linejoin:round;stroke-miterlimit:10;}
	.st1{fill:#D4D8DE;}
	.st2{fill:none;stroke:#FFFFFF;stroke-width:3;stroke-linecap:round;stroke-linejoin:round;stroke-miterlimit:10;}
</style>
<path class="st0" d="M16.8,18.6H7.2c-0.8,0-1.4-0.6-1.4-1.4V8.8c0-0.8,0.6-1.4,1.4-1.4h9.6c0.8,0,1.4,0.6,1.4,1.4v8.4
	C18.2,18,17.6,18.6,16.8,18.6z"/>
<path class="st1" d="M18.2,9.9H5.8V8.8c0-0.8,0.6-1.4,1.4-1.4h9.6c0.8,0,1.4,0.6,1.4,1.4V9.9z"/>
<rect x="8.2" y="11.5" class="st1" width="1.4" height="1.4"/>
<rect x="11.3" y="11.5" class="st1" width="1.4" height="1.4"/>
<rect x="14.4" y="11.5" class="st1" width="1.4" height="1.4"/>
<rect x="8.2" y="14.5" class="st1" width="1.4" height="1.4"/>
<rect x="11.3" y="14.5" class="st1" width="1.4" height="1.4"/>
<rect x="14.4" y="14.5" class="st1" width="1.4" height="1.4"/>
<g>
	<line class="st2" x1="7.9" y1="5.8" x2="7.9" y2="6.8"/>
	<line class="st0" x1="7.9" y1="5.8" x2="7.9" y2="6.8"/>
</g>
<g>
	<line class="st2" x1="16.1" y1="5.8" x2="16.1" y2="6.8"/>
	<line class="st0" x1="16.1" y1="5.8" x2="16.1" y2="6.8"/>
</g>
</svg>
