<?xml version="1.0" encoding="utf-8"?>
<!-- Generator: Adobe Illustrator 27.5.0, SVG Export Plug-In . SVG Version: 6.00 Build 0)  -->
<svg version="1.1" id="圖層_1" xmlns="http://www.w3.org/2000/svg" xmlns:xlink="http://www.w3.org/1999/xlink" x="0px" y="0px"
	 viewBox="0 0 24 24" style="enable-background:new 0 0 24 24;" xml:space="preserve">
<style type="text/css">
	.st0{fill:none;stroke:#667A8E;stroke-width:2.2262;stroke-linecap:round;stroke-linejoin:round;stroke-miterlimit:10;}
	.st1{fill:#667A8E;}
	.st2{fill:none;stroke:#FFFFFF;stroke-width:3.3393;stroke-linecap:round;stroke-linejoin:round;stroke-miterlimit:10;}
</style>
<g>
	<path class="st0" d="M17.3,19.1H6.7c-0.9,0-1.6-0.7-1.6-1.6V8.2c0-0.9,0.7-1.6,1.6-1.6h10.7c0.9,0,1.6,0.7,1.6,1.6v9.4
		C18.9,18.5,18.2,19.1,17.3,19.1z"/>
	<path class="st1" d="M18.9,9.4H5.1V8.2c0-0.9,0.7-1.6,1.6-1.6h10.7c0.9,0,1.6,0.7,1.6,1.6v1.2H18.9z"/>
	<rect x="7.8" y="11.2" class="st1" width="1.6" height="1.6"/>
	<rect x="11.2" y="11.2" class="st1" width="1.6" height="1.6"/>
	<rect x="14.7" y="11.2" class="st1" width="1.6" height="1.6"/>
	<rect x="7.8" y="14.6" class="st1" width="1.6" height="1.6"/>
	<rect x="11.2" y="14.6" class="st1" width="1.6" height="1.6"/>
	<rect x="14.7" y="14.6" class="st1" width="1.6" height="1.6"/>
	<g>
		<line class="st2" x1="7.4" y1="4.9" x2="7.4" y2="6"/>
		<line class="st0" x1="7.4" y1="4.9" x2="7.4" y2="6"/>
	</g>
	<g>
		<line class="st2" x1="16.6" y1="4.9" x2="16.6" y2="6"/>
		<line class="st0" x1="16.6" y1="4.9" x2="16.6" y2="6"/>
	</g>
</g>
</svg>
