<?xml version="1.0" encoding="utf-8"?>
<!-- Generator: Adobe Illustrator 27.5.0, SVG Export Plug-In . SVG Version: 6.00 Build 0)  -->
<svg version="1.1" id="圖層_1" xmlns="http://www.w3.org/2000/svg" xmlns:xlink="http://www.w3.org/1999/xlink" x="0px" y="0px"
	 viewBox="0 0 24 24" style="enable-background:new 0 0 24 24;" xml:space="preserve">
<style type="text/css">
	.st0{fill:none;stroke:#667A8E;stroke-width:1.9287;stroke-linecap:round;stroke-linejoin:round;stroke-miterlimit:10;}
</style>
<g>
	<line class="st0" x1="5.8" y1="18.3" x2="18.3" y2="5.7"/>
	<path class="st0" d="M5.5,14.2C5,13.5,4.7,12.8,4.7,12C4.7,9.2,8,6.9,12,6.9c0.3,0,0.5,0,0.8,0"/>
	<path class="st0" d="M10.7,13.4"/>
	<path class="st0" d="M7.9,16.2c1.1,0.6,2.6,0.9,4.1,0.9c4.1,0,7.3-2.3,7.3-5.1c0-1.7-1.2-3.2-3.1-4.2h0"/>
	<path class="st0" d="M13.4,10.6"/>
	<path class="st0" d="M13.4,10.6C13.8,11,14,11.4,14,12c0,1.1-0.9,1.9-1.9,1.9c-0.5,0-1-0.2-1.4-0.6"/>
</g>
</svg>
