<?xml version="1.0" encoding="utf-8"?>
<!-- Generator: Adobe Illustrator 27.5.0, SVG Export Plug-In . SVG Version: 6.00 Build 0)  -->
<svg version="1.1" id="圖層_1" xmlns="http://www.w3.org/2000/svg" xmlns:xlink="http://www.w3.org/1999/xlink" x="0px" y="0px"
	 viewBox="0 0 24 24" style="enable-background:new 0 0 24 24;" xml:space="preserve">
<style type="text/css">
	.st0{fill:none;stroke:#D3D8DF;stroke-width:2;stroke-linecap:round;stroke-linejoin:round;stroke-miterlimit:10;}
	.st1{fill:none;stroke:#D4D8DE;stroke-width:2;stroke-linecap:round;stroke-linejoin:round;stroke-miterlimit:10;}
</style>
<line class="st0" x1="5.5" y1="18.5" x2="18.5" y2="5.5"/>
<path class="st1" d="M5.2,14.3c-0.5-0.7-0.8-1.5-0.8-2.3c0-2.9,3.4-5.3,7.6-5.3c0.3,0,0.5,0,0.8,0"/>
<g>
	<path class="st1" d="M10.6,13.4"/>
	<path class="st1" d="M16.3,7.7c2,1,3.2,2.5,3.2,4.3c0,2.9-3.4,5.3-7.6,5.3c-1.6,0-3.1-0.4-4.3-1"/>
	<path class="st1" d="M13.4,10.6"/>
	<path class="st1" d="M13.4,10.6C13.8,11,14,11.4,14,12c0,1.1-0.9,2-2,2c-0.5,0-1-0.2-1.4-0.6"/>
</g>
</svg>
