<?xml version="1.0" encoding="utf-8"?>
<!-- Generator: Adobe Illustrator 27.5.0, SVG Export Plug-In . SVG Version: 6.00 Build 0)  -->
<svg version="1.1" id="圖層_1" xmlns="http://www.w3.org/2000/svg" xmlns:xlink="http://www.w3.org/1999/xlink" x="0px" y="0px"
	 viewBox="0 0 24 24" style="enable-background:new 0 0 24 24;" xml:space="preserve">
<style type="text/css">
	.st0{fill:none;}
	.st1{fill:none;stroke:#D3D8DF;stroke-width:2;stroke-linecap:round;stroke-linejoin:round;stroke-miterlimit:10;}
	.st2{fill:none;stroke:#D4D8DE;stroke-width:2;stroke-linecap:round;stroke-linejoin:round;stroke-miterlimit:10;}
</style>
<rect y="0" class="st0" width="24" height="24"/>
<line class="st1" x1="5.53" y1="18.47" x2="18.47" y2="5.53"/>
<path class="st2" d="M5.21,14.31c-0.5-0.7-0.77-1.48-0.77-2.31c0-2.93,3.39-5.31,7.56-5.31c0.27,0,0.54,0.01,0.8,0.03"/>
<g>
	<path class="st2" d="M10.61,13.39"/>
	<path class="st2" d="M16.34,7.66c1.95,0.95,3.22,2.54,3.22,4.34c0,2.93-3.39,5.31-7.56,5.31c-1.61,0-3.11-0.36-4.34-0.97"/>
	<path class="st2" d="M13.39,10.61"/>
	<path class="st2" d="M13.39,10.61c0.36,0.35,0.58,0.84,0.58,1.39c0,1.09-0.88,1.97-1.97,1.97c-0.54,0-1.04-0.22-1.39-0.58"/>
</g>
</svg>
