<?xml version="1.0" encoding="utf-8"?>
<!-- Generator: Adobe Illustrator 27.5.0, SVG Export Plug-In . SVG Version: 6.00 Build 0)  -->
<svg version="1.1" id="Слой_1" xmlns="http://www.w3.org/2000/svg" xmlns:xlink="http://www.w3.org/1999/xlink" x="0px" y="0px"
	 viewBox="0 0 24 24" style="enable-background:new 0 0 24 24;" xml:space="preserve">
<style type="text/css">
	.st0{fill:#FFFFFF;}
	.st1{fill:#FF0000;}
	.st2{fill:#00C600;}
	.st3{fill:#FFCD05;}
	.st4{fill:#0085FF;}
	.st5{fill:none;}
</style>
<circle class="st0" cx="12" cy="12" r="12"/>
<path class="st1" d="M17.502,5.887l-2.21,2.462c-0.871-0.787-2.023-1.262-3.289-1.262c-1.939,0-3.618,1.123-4.416,2.755L4.613,8.385
	c1.339-2.729,4.145-4.61,7.39-4.61C14.118,3.776,16.046,4.573,17.502,5.887z"/>
<path class="st2" d="M17.448,18.168c-1.449,1.284-3.355,2.063-5.444,2.063c-3.293,0-6.135-1.935-7.449-4.734l2.996-1.405
	c0.787,1.672,2.484,2.828,4.452,2.828c1.248,0,2.389-0.465,3.252-1.233L17.448,18.168z"/>
<path class="st3" d="M7.087,12.004c0,0.746,0.168,1.456,0.465,2.089l-2.996,1.405c-0.501-1.061-0.779-2.243-0.779-3.494
	c0-1.299,0.3-2.528,0.838-3.618l2.974,1.456C7.266,10.496,7.087,11.228,7.087,12.004z"/>
<path class="st4" d="M20.232,12.004c0,0.512-0.048,1.01-0.139,1.496c-0.337,1.848-1.291,3.476-2.645,4.668l-2.191-2.48
	c0.659-0.578,1.16-1.332,1.43-2.188h-4.504v-2.963h7.913C20.188,11.012,20.232,11.502,20.232,12.004z"/>
<rect y="0" class="st5" width="24" height="24"/>
</svg>
