<?xml version="1.0" encoding="utf-8"?>
<!-- Generator: Adobe Illustrator 27.5.0, SVG Export Plug-In . SVG Version: 6.00 Build 0)  -->
<svg version="1.1" id="Слой_1" xmlns="http://www.w3.org/2000/svg" xmlns:xlink="http://www.w3.org/1999/xlink" x="0px" y="0px"
	 viewBox="0 0 24 24" style="enable-background:new 0 0 24 24;" xml:space="preserve">
<style type="text/css">
	.st0{fill:#FFFFFF;}
	.st1{fill:#FF0000;}
	.st2{fill:#00C600;}
	.st3{fill:#FFCD05;}
	.st4{fill:#0085FF;}
</style>
<circle class="st0" cx="12" cy="12" r="12"/>
<path class="st1" d="M17.5,5.9l-2.2,2.5c-0.9-0.8-2-1.3-3.3-1.3c-1.9,0-3.6,1.1-4.4,2.8l-3-1.5C6,5.7,8.8,3.8,12,3.8
	C14.1,3.8,16,4.6,17.5,5.9z"/>
<path class="st2" d="M17.4,18.2c-1.4,1.3-3.4,2.1-5.4,2.1c-3.3,0-6.1-1.9-7.4-4.7l3-1.4c0.8,1.7,2.5,2.8,4.5,2.8
	c1.2,0,2.4-0.5,3.3-1.2L17.4,18.2z"/>
<path class="st3" d="M7.1,12c0,0.7,0.2,1.5,0.5,2.1l-3,1.4c-0.5-1.1-0.8-2.2-0.8-3.5c0-1.3,0.3-2.5,0.8-3.6l3,1.5
	C7.3,10.5,7.1,11.2,7.1,12z"/>
<path class="st4" d="M20.2,12c0,0.5,0,1-0.1,1.5c-0.3,1.8-1.3,3.5-2.6,4.7l-2.2-2.5c0.7-0.6,1.2-1.3,1.4-2.2h-4.5v-3h7.9
	C20.2,11,20.2,11.5,20.2,12z"/>
</svg>
