<?xml version="1.0" encoding="utf-8"?>
<!-- Generator: Adobe Illustrator 27.5.0, SVG Export Plug-In . SVG Version: 6.00 Build 0)  -->
<svg version="1.1" id="圖層_1" xmlns="http://www.w3.org/2000/svg" xmlns:xlink="http://www.w3.org/1999/xlink" x="0px" y="0px"
	 viewBox="0 0 24 24" style="enable-background:new 0 0 24 24;" xml:space="preserve">
<style type="text/css">
	.st0{fill:#06C755;}
	.st1{fill:#FFFFFF;}
</style>
<rect y="0" class="st0" width="24" height="24"/>
<path class="st1" d="M20,10.869c0-3.581-3.59-6.494-8.002-6.494s-8.002,2.913-8.002,6.494c0,3.21,2.85,5.899,6.692,6.407
	c0.261,0.056,0.616,0.172,0.705,0.394c0.081,0.202,0.053,0.52,0.026,0.724c0,0-0.094,0.565-0.114,0.685
	c-0.035,0.202-0.161,0.791,0.693,0.432s4.608-2.713,6.286-4.646l0,0C19.444,13.593,20,12.3,20,10.869z"/>
<path class="st0" d="M17.337,12.937h-2.25c-0.083,0-0.15-0.067-0.15-0.15l0,0l0,0V9.295l0,0l0,0c0-0.083,0.067-0.15,0.15-0.15h2.25
	c0.083,0,0.15,0.067,0.15,0.15v0.568c0,0.083-0.067,0.15-0.15,0.15h-1.528v0.589h1.528c0.083,0,0.15,0.067,0.15,0.15v0.573
	c0,0.083-0.067,0.15-0.15,0.15h-1.528v0.59h1.528c0.083,0,0.15,0.067,0.15,0.15v0.567c0.003,0.083-0.062,0.152-0.145,0.155
	C17.341,12.937,17.339,12.937,17.337,12.937z"/>
<path class="st0" d="M9.022,12.937c0.083,0,0.15-0.067,0.15-0.15V12.22c0-0.083-0.067-0.15-0.15-0.15H7.494V9.295
	c0-0.083-0.067-0.15-0.15-0.15h-0.57c-0.083,0-0.15,0.067-0.15,0.15v3.49l0,0l0,0c0,0.083,0.067,0.15,0.15,0.15h2.25L9.022,12.937z"
	/>
<path class="st0" d="M9.808,9.139h0.567c0.085,0,0.153,0.068,0.153,0.153v3.492c0,0.085-0.068,0.153-0.153,0.153H9.808
	c-0.085,0-0.153-0.068-0.153-0.153V9.292C9.655,9.207,9.723,9.139,9.808,9.139z"/>
<path class="st0" d="M14.238,9.139h-0.567c-0.083,0-0.15,0.067-0.15,0.15v2.074l-1.597-2.158C11.92,9.2,11.916,9.194,11.911,9.19
	l0,0l-0.009-0.009l0,0l-0.008-0.007h-0.005l-0.008-0.006h-0.005l-0.008-0.005h-0.005h-0.008H11.85h-0.01h-0.006h-0.009h-0.006
	h-0.008h-0.578c-0.083,0-0.15,0.067-0.15,0.15v3.492c0,0.083,0.067,0.15,0.15,0.15H11.8c0.083,0,0.15-0.067,0.15-0.15V10.71
	l1.6,2.16c0.01,0.015,0.024,0.029,0.039,0.039l0,0l0.009,0.006h0.005l0.008,0.004h0.007h0.005h0.01l0,0
	c0.013,0.003,0.027,0.005,0.04,0.005h0.564c0.083,0,0.15-0.067,0.15-0.15V9.292c0.002-0.083-0.064-0.151-0.147-0.153
	C14.24,9.139,14.239,9.139,14.238,9.139z"/>
</svg>
