<?xml version="1.0" encoding="utf-8"?>
<!-- Generator: Adobe Illustrator 27.5.0, SVG Export Plug-In . SVG Version: 6.00 Build 0)  -->
<svg version="1.1" id="圖層_1" xmlns="http://www.w3.org/2000/svg" xmlns:xlink="http://www.w3.org/1999/xlink" x="0px" y="0px"
	 viewBox="0 0 24 24" style="enable-background:new 0 0 24 24;" xml:space="preserve">
<style type="text/css">
	.st0{fill:#667A90;}
	.st1{fill:none;stroke:#667A90;stroke-width:2;stroke-miterlimit:10;}
	.st2{fill:none;stroke:#FFFFFF;stroke-width:2;stroke-linecap:round;stroke-linejoin:round;stroke-miterlimit:10;}
	.st3{fill:none;}
</style>
<path class="st0" d="M17.636,21.11H6.364c-1.566,0-2.835-1.269-2.835-2.835V8.023c0-1.566,1.269-2.835,2.835-2.835h11.272
	c1.566,0,2.835,1.269,2.835,2.835v10.252C20.471,19.841,19.201,21.11,17.636,21.11z"/>
<circle class="st1" cx="12" cy="5.189" r="2.279"/>
<g>
	<g>
		<line class="st2" x1="10.178" y1="9.365" x2="17.237" y2="9.365"/>
		<line class="st2" x1="6.763" y1="9.365" x2="7.232" y2="9.365"/>
	</g>
	<g>
		<line class="st2" x1="10.178" y1="13.149" x2="17.237" y2="13.149"/>
		<line class="st2" x1="6.763" y1="13.149" x2="7.232" y2="13.149"/>
	</g>
	<g>
		<line class="st2" x1="10.178" y1="16.933" x2="17.237" y2="16.933"/>
		<line class="st2" x1="6.763" y1="16.933" x2="7.232" y2="16.933"/>
	</g>
</g>
<rect y="0" class="st3" width="24" height="24"/>
</svg>
