<?xml version="1.0" encoding="utf-8"?>
<!-- Generator: Adobe Illustrator 27.5.0, SVG Export Plug-In . SVG Version: 6.00 Build 0)  -->
<svg version="1.1" id="圖層_1" xmlns="http://www.w3.org/2000/svg" xmlns:xlink="http://www.w3.org/1999/xlink" x="0px" y="0px"
	 viewBox="0 0 316.761 577.981" style="enable-background:new 0 0 316.761 577.981;" xml:space="preserve">
<style type="text/css">
	.st0{fill:#F8FAFC;}
	.st1{fill:#FFFFFF;}
	.st2{fill:none;}
	.st3{fill:#C0C6CF;}
	.st4{font-family:'PingFangTC-Semibold-B5pc-H';}
	.st5{font-size:12px;}
	.st6{fill:#6A798F;}
	.st7{font-family:'PingFangTC-Medium-B5pc-H';}
	.st8{fill:#00C800;}
	.st9{fill:none;stroke:#C0C6CF;stroke-miterlimit:10;}
	.st10{fill:none;stroke:#C0C6CF;stroke-linecap:round;stroke-linejoin:round;stroke-miterlimit:10;}
	.st11{fill:#0085FF;}
	.st12{fill:#0082FF;}
	.st13{fill:#FF0040;}
	.st14{fill:#FFBE00;}
	.st15{fill:#00A500;}
	.st16{fill:none;stroke:#F8FAFC;stroke-linecap:round;stroke-linejoin:round;stroke-miterlimit:10;}
	.st17{fill:#F1F5F9;}
	.st18{fill:#D5D9DF;}
	.st19{fill:#00FF00;}
	.st20{fill:none;stroke:#6A798F;stroke-linecap:round;stroke-linejoin:round;stroke-miterlimit:10;}
	.st21{fill:#06C755;}
</style>
<rect class="st0" width="316.761" height="577.981"/>
<path class="st1" d="M286.267,548.938H30.602c-5.523,0-10-4.477-10-10V38.867c0-5.523,4.477-10,10-10h255.665
	c5.523,0,10,4.477,10,10v500.071C296.267,544.461,291.79,548.938,286.267,548.938z"/>
<g>
	<path class="st0" d="M121.727,198.773h140.54c5.523,0,10,4.477,10,10v4.66c0,5.523-4.477,10-10,10h-140.54c-5.523,0-10-4.477-10-10
		v-4.66C111.727,203.25,116.205,198.773,121.727,198.773z"/>
	<g>
		<rect x="53.295" y="205.07" class="st2" width="51.227" height="10.92"/>
		<text transform="matrix(1 0 0 1 53.2952 215.3902)" class="st3 st4 st5">帳號</text>
	</g>
	<rect x="134.174" y="203.963" class="st2" width="115.434" height="10.92"/>
	<text transform="matrix(1 0 0 1 175.7386 214.2835)" class="st6 st7 st5">jjukvs</text>
</g>
<g>
	<path class="st0" d="M121.727,235.433h140.54c5.523,0,10,4.477,10,10v4.66c0,5.523-4.477,10-10,10h-140.54c-5.523,0-10-4.477-10-10
		v-4.66C111.727,239.91,116.205,235.433,121.727,235.433z"/>
	<g>
		<g>
			<rect x="53.295" y="241.242" class="st2" width="51.227" height="10.92"/>
			<text transform="matrix(1 0 0 1 53.2952 251.562)" class="st3 st4 st5">暱稱</text>
		</g>
		<rect x="134.174" y="241.18" class="st2" width="115.427" height="10.92"/>
		<text transform="matrix(1 0 0 1 176.8695 251.5003)" class="st6 st7 st5">JJUK</text>
	</g>
</g>
<g>
	<path class="st0" d="M121.727,272.093h140.54c5.523,0,10,4.477,10,10v4.66c0,5.523-4.477,10-10,10h-140.54c-5.523,0-10-4.477-10-10
		v-4.66C111.727,276.57,116.205,272.093,121.727,272.093z"/>
	<g>
		<rect x="53.296" y="278.384" class="st2" width="51.266" height="10.92"/>
		<text transform="matrix(1 0 0 1 53.2952 288.7042)" class="st3 st4 st5">E-mail</text>
	</g>
	<rect x="134.174" y="277.199" class="st2" width="115.646" height="10.92"/>
	<text transform="matrix(1 0 0 1 141.4417 287.5193)" class="st6 st7 st5">jjukvs@gmail.com</text>
</g>
<g>
	<path class="st0" d="M262.269,107.32H54.492c-5.523,0-10-4.477-10-10V62.867c0-5.523,4.477-10,10-10h207.778
		c5.523,0,10,4.477,10,10V97.32C272.269,102.843,267.792,107.32,262.269,107.32z"/>
	<g id="LINE_LOGO">
		<path class="st8" d="M61.81,63.858h17.83c4.043,0,7.32,3.277,7.32,7.32v17.83c0,4.043-3.277,7.32-7.32,7.32H61.81
			c-4.043,0-7.32-3.277-7.32-7.32v-17.83C54.49,67.135,57.767,63.858,61.81,63.858z"/>
		<g>
			<path class="st1" d="M81.548,78.563c0-4.844-4.856-8.785-10.826-8.785c-5.97,0-10.826,3.941-10.826,8.785
				c0,4.343,3.856,7.981,9.053,8.668c0.353,0.076,0.833,0.232,0.954,0.534c0.11,0.274,0.072,0.703,0.036,0.979
				c0,0-0.127,0.764-0.154,0.926c-0.048,0.274-0.218,1.071,0.938,0.584c1.156-0.486,6.234-3.671,8.505-6.286l0,0
				C80.796,82.248,81.548,80.499,81.548,78.563z"/>
			<path class="st8" d="M77.945,81.361h-3.044c-0.112,0-0.203-0.091-0.203-0.203l0,0l0,0v-4.723l0,0l0,0
				c0-0.112,0.091-0.203,0.203-0.203h3.044c0.112,0,0.203,0.091,0.203,0.203v0.768c0,0.112-0.091,0.203-0.203,0.203h-2.067v0.797
				h2.067c0.112,0,0.203,0.091,0.203,0.203v0.775c0,0.112-0.091,0.203-0.203,0.203h-2.067v0.798h2.067
				c0.112,0,0.203,0.091,0.203,0.203v0.767c0.004,0.112-0.084,0.206-0.196,0.21C77.95,81.36,77.948,81.361,77.945,81.361z"/>
			<path class="st8" d="M66.695,81.361c0.112,0,0.203-0.091,0.203-0.203V80.39c0-0.112-0.091-0.203-0.203-0.203h-2.067v-3.754
				c0-0.112-0.091-0.203-0.203-0.203h-0.771c-0.112,0-0.203,0.091-0.203,0.203v4.721l0,0l0,0c0,0.112,0.091,0.203,0.203,0.203h3.044
				L66.695,81.361z"/>
			<path class="st8" d="M67.759,76.222h0.767c0.114,0,0.207,0.093,0.207,0.207v4.724c0,0.114-0.093,0.207-0.207,0.207h-0.767
				c-0.114,0-0.207-0.093-0.207-0.207v-4.724C67.552,76.315,67.645,76.222,67.759,76.222z"/>
			<path class="st8" d="M73.753,76.222h-0.767c-0.112,0-0.203,0.091-0.203,0.203v2.807l-2.161-2.919
				c-0.005-0.008-0.011-0.015-0.017-0.021l0,0l-0.012-0.012l0,0l-0.011-0.009h-0.006l-0.011-0.008h-0.006l-0.011-0.006h-0.007
				h-0.011h-0.007h-0.012h-0.008h-0.012H70.48h-0.011h-0.782c-0.112,0-0.203,0.091-0.203,0.203v4.724
				c0,0.112,0.091,0.203,0.203,0.203h0.768c0.112,0,0.203-0.091,0.203-0.203v-2.834l2.164,2.922
				c0.014,0.021,0.032,0.039,0.053,0.053l0,0l0.012,0.008h0.006l0.01,0.005h0.01h0.007h0.014l0,0
				c0.018,0.004,0.036,0.007,0.055,0.007h0.763c0.112,0,0.203-0.091,0.203-0.203v-4.712c0.002-0.112-0.087-0.205-0.199-0.207
				C73.755,76.222,73.754,76.222,73.753,76.222z"/>
		</g>
	</g>
	<g>
		<rect x="98.449" y="59.977" class="st2" width="93.629" height="15.541"/>
		<text transform="matrix(1 0 0 1 98.4491 72.9082)" class="st6 st7 st5">LINE 快速登入</text>
	</g>
	<g>
		<g>
			<circle class="st9" cx="105.685" cy="86.872" r="6.037"/>
			<line class="st10" x1="103.641" y1="84.828" x2="107.729" y2="88.916"/>
			<line class="st10" x1="107.729" y1="84.828" x2="103.641" y2="88.916"/>
		</g>
	</g>
	<g>
		<rect x="118.174" y="78.426" class="st2" width="51.764" height="15.541"/>
		<text transform="matrix(1 0 0 1 118.1746 91.3574)" class="st3 st7 st5">尚未綁定</text>
	</g>
	<path class="st11" d="M254.759,91.523h-48.248c-4.418,0-8-3.582-8-8v-6.86c0-4.418,3.582-8,8-8h48.248c4.418,0,8,3.582,8,8v6.86
		C262.759,87.942,259.177,91.523,254.759,91.523z"/>
	<rect x="203.59" y="69.63" class="st2" width="54.171" height="19.516"/>
	<text transform="matrix(1 0 0 1 206.6756 84.549)" class="st1 st7 st5">綁定帳號</text>
</g>
<g>
	<path class="st0" d="M262.269,173.773H54.492c-5.523,0-10-4.477-10-10V129.32c0-5.523,4.477-10,10-10h207.778
		c5.523,0,10,4.477,10,10v34.453C272.269,169.296,267.792,173.773,262.269,173.773z"/>
	<g>
		<path class="st1" d="M61.81,130.222h17.83c4.043,0,7.32,3.277,7.32,7.32v17.83c0,4.043-3.277,7.32-7.32,7.32H61.81
			c-4.043,0-7.32-3.277-7.32-7.32v-17.83C54.49,133.499,57.767,130.222,61.81,130.222z"/>
		<g>
			<path class="st12" d="M78.942,146.454c0,2.375-1.06,4.677-2.814,6.212l-2.302-2.668c0.621-0.548,1.096-1.242,1.352-2.046h-4.276
				v-2.96h7.893C78.906,145.467,78.942,145.942,78.942,146.454z"/>
			<path class="st13" d="M76.202,140.314l-2.339,2.631c-2.266-2.083-6.139-1.316-7.382,1.462l-3.179-1.535
				C65.531,138.012,72.218,136.66,76.202,140.314z"/>
			<path class="st14" d="M66.006,146.454c0,0.731,0.183,1.425,0.475,2.046l-3.179,1.535c-1.06-2.119-1.06-5.006,0-7.162l3.179,1.535
				C66.189,145.029,66.006,145.723,66.006,146.454z"/>
			<path class="st15" d="M76.129,152.666c-3.983,3.581-10.597,2.193-12.827-2.631l3.179-1.535c1.242,2.741,5.079,3.545,7.345,1.498
				L76.129,152.666z"/>
		</g>
	</g>
	<g>
		<rect x="98.748" y="126.341" class="st2" width="93.629" height="15.541"/>
		<text transform="matrix(1 0 0 1 98.7479 139.2722)" class="st6 st7 st5">Google 快速登入</text>
	</g>
	<g>
		<g>
			<circle class="st9" cx="105.685" cy="156.156" r="6.037"/>
			<polyline class="st10" points="102.953,155.993 104.953,158.169 108.615,153.89 			"/>
		</g>
	</g>
	<rect x="118.174" y="147.711" class="st2" width="51.764" height="15.541"/>
	<text transform="matrix(1 0 0 1 118.1746 160.6416)" class="st3 st7 st5">已綁定</text>
	<path class="st6" d="M254.759,157.976h-48.248c-4.418,0-8-3.582-8-8v-6.86c0-4.418,3.582-8,8-8h48.248c4.418,0,8,3.582,8,8v6.86
		C262.759,154.395,259.177,157.976,254.759,157.976z"/>
	<rect x="203.59" y="136.083" class="st2" width="54.171" height="19.516"/>
	<text transform="matrix(1 0 0 1 206.6756 151.0017)" class="st1 st7 st5">解除綁定</text>
</g>
<line class="st16" x1="44.602" y1="186.273" x2="272.159" y2="186.273"/>
<g>
	<path class="st0" d="M121.727,308.753h140.54c5.523,0,10,4.477,10,10v4.66c0,5.523-4.477,10-10,10h-140.54c-5.523,0-10-4.477-10-10
		v-4.66C111.727,313.23,116.205,308.753,121.727,308.753z"/>
	<g>
		<rect x="53.295" y="315.05" class="st2" width="51.294" height="10.92"/>
		<text transform="matrix(1 0 0 1 53.2952 325.3702)" class="st3 st4 st5">手機號碼</text>
	</g>
	<rect x="134.174" y="315.047" class="st2" width="115.547" height="10.92"/>
	<text transform="matrix(1 0 0 1 157.514 325.367)" class="st6 st7 st5">0911-773181</text>
</g>
<g>
	<path class="st0" d="M121.727,345.413h140.54c5.523,0,10,4.477,10,10v4.66c0,5.523-4.477,10-10,10h-140.54c-5.523,0-10-4.477-10-10
		v-4.66C111.727,349.89,116.205,345.413,121.727,345.413z"/>
	<g>
		<rect x="53.295" y="351.71" class="st2" width="51.294" height="10.92"/>
		<text transform="matrix(1 0 0 1 53.2952 362.0302)" class="st3 st4 st5">修改密碼</text>
	</g>
	<g>
		<rect x="134.174" y="351.707" class="st2" width="115.547" height="10.92"/>
		<text transform="matrix(1 0 0 1 161.9476 362.0267)" class="st3 st7 st5">輸入新密碼</text>
	</g>
</g>
<g>
	<path class="st0" d="M121.727,382.073h140.54c5.523,0,10,4.477,10,10v4.66c0,5.523-4.477,10-10,10h-140.54c-5.523,0-10-4.477-10-10
		v-4.66C111.727,386.55,116.205,382.073,121.727,382.073z"/>
	<g>
		<rect x="53.295" y="388.37" class="st2" width="51.294" height="10.92"/>
		<text transform="matrix(1 0 0 1 53.2952 398.6901)" class="st3 st4 st5">再次輸入</text>
	</g>
	<g>
		<rect x="134.174" y="388.367" class="st2" width="115.547" height="10.92"/>
		<text transform="matrix(1 0 0 1 149.9476 398.6863)" class="st3 st7 st5">再次輸入以確認</text>
	</g>
</g>
<line class="st16" x1="44.602" y1="419.233" x2="272.159" y2="419.233"/>
<g>
	<rect x="-97.38" y="15.161" class="st1" width="69.176" height="27.765"/>
	<g>
		<rect x="-89.489" y="20.397" class="st2" width="52.867" height="15.541"/>
		<text transform="matrix(1 0 0 1 -85.5285 32.8966)" class="st7" style="font-size:11px;">#FFFFFF</text>
	</g>
</g>
<g>
	<rect x="-97.38" y="42.925" class="st17" width="69.176" height="27.765"/>
	<rect x="-89.489" y="48.162" class="st2" width="52.867" height="15.541"/>
	<text transform="matrix(1 0 0 1 -84.7858 60.6623)" class="st7" style="font-size:11px;">#F1F5F9</text>
</g>
<g>
	<rect x="-97.38" y="70.69" class="st18" width="69.176" height="27.765"/>
	<rect x="-89.392" y="75.927" class="st2" width="52.867" height="15.541"/>
	<text transform="matrix(1 0 0 1 -87.8844 88.4274)" class="st7" style="font-size:11px;">#D5D9DF</text>
</g>
<g>
	<rect x="-97.38" y="98.455" class="st6" width="69.176" height="27.765"/>
	<rect x="-89.309" y="103.691" class="st2" width="52.867" height="15.541"/>
	<text transform="matrix(1 0 0 1 -86.0085 116.1916)" class="st7" style="font-size:11px;">#6A798F</text>
</g>
<g>
	<rect x="-97.38" y="153.984" class="st11" width="69.176" height="27.765"/>
	<rect x="-89.309" y="159.221" class="st2" width="52.867" height="15.541"/>
	<text transform="matrix(1 0 0 1 -85.7663 171.7209)" class="st7" style="font-size:11px;">#0085FF</text>
</g>
<g>
	<rect x="-97.38" y="126.219" class="st19" width="69.176" height="27.765"/>
	<rect x="-89.309" y="131.456" class="st2" width="52.867" height="15.541"/>
	<text transform="matrix(1 0 0 1 -86.696 143.9562)" class="st7" style="font-size:11px;">#00C800</text>
</g>
<g>
	<path class="st0" d="M102.421,486.186H54.492c-5.523,0-10-4.477-10-10v-34.453c0-5.523,4.477-10,10-10h47.929
		c5.523,0,10,4.477,10,10v34.453C112.421,481.708,107.943,486.186,102.421,486.186z"/>
	<g>
		<g>
			<path class="st20" d="M84.704,455.123H72.208c-0.552,0-1-0.448-1-1v-8.012c0-0.552,0.448-1,1-1h12.496c0.552,0,1,0.448,1,1v8.012
				C85.704,454.675,85.257,455.123,84.704,455.123z"/>
			<line class="st20" x1="71.208" y1="448.712" x2="85.704" y2="448.712"/>
		</g>
	</g>
	<rect x="47.819" y="465.436" class="st2" width="61.038" height="10.92"/>
	<text transform="matrix(1 0 0 1 54.3363 475.7562)" class="st6 st7 st5">收款帳號</text>
</g>
<g>
	<path class="st0" d="M262.278,486.186h-47.929c-5.523,0-10-4.477-10-10v-34.453c0-5.523,4.477-10,10-10h47.929
		c5.523,0,10,4.477,10,10v34.453C272.278,481.708,267.801,486.186,262.278,486.186z"/>
	<path class="st6" d="M239.21,445.241l1.207,2.446l2.7,0.392c0.82,0.119,1.148,1.127,0.554,1.706l-1.954,1.904l0.461,2.689
		c0.14,0.817-0.717,1.44-1.451,1.054l-2.415-1.269l-2.415,1.269c-0.734,0.386-1.591-0.237-1.451-1.054l0.461-2.689l-1.954-1.904
		c-0.594-0.579-0.266-1.587,0.554-1.706l2.7-0.392l1.207-2.446C237.784,444.498,238.843,444.498,239.21,445.241z"/>
	<rect x="207.837" y="465.436" class="st2" width="61.038" height="10.92"/>
	<text transform="matrix(1 0 0 1 214.3558 475.7562)" class="st6 st7 st5">權限管理</text>
</g>
<g>
	<path class="st0" d="M182.349,486.186h-47.929c-5.523,0-10-4.477-10-10v-34.453c0-5.523,4.477-10,10-10h47.929
		c5.523,0,10,4.477,10,10v34.453C192.349,481.708,187.872,486.186,182.349,486.186z"/>
	<rect x="127.944" y="465.436" class="st2" width="61.038" height="10.92"/>
	<text transform="matrix(1 0 0 1 134.4632 475.7562)" class="st6 st7 st5">作業流程</text>
	<g>
		<path class="st20" d="M163.692,447.595v8.099c0,0.552-0.448,1-1,1h-8.613c-0.552,0-1-0.448-1-1V444.54c0-0.552,0.448-1,1-1h5.532
			v3.055c0,0.552,0.448,1,1,1H163.692z"/>
		<line class="st20" x1="155.418" y1="447.963" x2="157.415" y2="447.963"/>
		<line class="st20" x1="155.418" y1="450.798" x2="161.41" y2="450.798"/>
		<line class="st20" x1="155.418" y1="453.632" x2="161.41" y2="453.632"/>
		<line class="st20" x1="163.692" y1="447.595" x2="159.61" y2="443.54"/>
	</g>
</g>
<g>
	<path class="st21" d="M142.385,524.688H54.492c-5.523,0-10-4.477-10-10v-6.502c0-5.523,4.477-10,10-10h87.893
		c5.523,0,10,4.477,10,10v6.502C152.385,520.211,147.908,524.688,142.385,524.688z"/>
	<g>
		<rect x="67.897" y="505.312" class="st2" width="61.038" height="10.92"/>
		<text transform="matrix(1 0 0 1 74.4144 515.6317)" class="st1 st7 st5">儲存修改</text>
	</g>
</g>
<g>
	<path class="st0" d="M262.278,524.938h-87.893c-5.523,0-10-4.477-10-10v-6.502c0-5.523,4.477-10,10-10h87.893
		c5.523,0,10,4.477,10,10v6.502C272.278,520.461,267.801,524.938,262.278,524.938z"/>
	<g>
		<rect x="187.789" y="505.654" class="st2" width="61.038" height="10.92"/>
		<text transform="matrix(1 0 0 1 206.307 515.971)" class="st3 st7 st5">取消</text>
	</g>
</g>
</svg>
